<svg viewBox="0 0 100 100" xmlns="http://www.w3.org/2000/svg"><rect width="100" height="100" fill="#0F2545"/><rect x="12" y="68" width="76" height="14" fill="#D4A017"/><path d="M43.71 35.64L45.01 35.64L44.43 42.55L45.01 49.44L43.71 49.44L41.86 43.75L31.26 43.44L31.26 41.66L41.86 41.30L43.71 35.64M50.29 25.08L52.18 36.36L51.18 36.62L45.92 27.94L48.85 28.87L30.25 28.87L30.25 26.64L46.69 26.64L49.81 25.08L50.29 25.08M49.30 57.77L46.69 58.63L52.50 49.63L53.46 49.92L51.06 61.61L50.53 61.61L47.38 60L30.25 60L30.25 57.77L49.30 57.77M34.33 60L23.36 60L23.36 59.14L27.10 57.91L27.10 28.70L23.36 27.53L23.36 26.64L34.33 26.64L34.33 60M55.02 41.88L64.81 41.88Q67.93 41.88 69.73 40.20Q71.53 38.52 71.53 35.26Q71.53 33.19 70.75 31.75Q69.97 30.31 68.26 29.57Q66.56 28.82 63.75 28.82L55.26 28.82L56.38 26.64L66.58 26.64Q71.02 26.64 73.68 27.72Q76.33 28.80 77.48 30.65Q78.63 32.50 78.63 34.80Q78.63 36.96 77.54 38.74Q76.45 40.51 74.24 41.64Q72.03 42.77 68.77 43.01L68.77 42.94Q71.05 43.01 72.48 43.61Q73.90 44.21 74.82 45.37Q75.73 46.54 76.40 48.38L78.87 54.89Q79.54 56.57 80.12 57.37Q80.70 58.18 81.48 58.39Q82.26 58.61 83.46 58.61L83.46 60.02Q80.12 60.29 78.04 60.23Q75.97 60.17 74.77 59.70Q73.57 59.23 72.88 58.27Q72.20 57.31 71.67 55.73L68.94 48.29Q68.31 46.54 67.74 45.62Q67.16 44.71 66.39 44.39Q65.62 44.06 64.50 44.06L56.22 44.06L55.02 41.88M50.02 26.64L61.04 26.64L61.04 57.89L64.88 59.14L64.88 60L50.02 60L50.02 59.14L53.82 57.89L53.82 28.73L50.02 27.53" fill="#E6E4DA"/></svg>